<svg xmlns="http://www.w3.org/2000/svg" xmlns:xlink="http://www.w3.org/1999/xlink" width="500" zoomAndPan="magnify" viewBox="0 0 375 374.999991" height="500" preserveAspectRatio="xMidYMid meet" version="1.0"><defs><g/><clipPath id="d20a332300"><path d="M 47.058594 37.5 L 328.308594 37.5 L 328.308594 105.75 L 47.058594 105.75 Z M 47.058594 37.5 " clip-rule="nonzero"/></clipPath><clipPath id="b1221ea746"><path d="M 224.382812 251.292969 L 327.882812 251.292969 L 327.882812 318.042969 L 224.382812 318.042969 Z M 224.382812 251.292969 " clip-rule="nonzero"/></clipPath><clipPath id="9a89b5bac6"><path d="M 47.058594 250.90625 L 150.558594 250.90625 L 150.558594 318.40625 L 47.058594 318.40625 Z M 47.058594 250.90625 " clip-rule="nonzero"/></clipPath><clipPath id="48a78ce036"><path d="M 23.847656 64.808594 L 350.847656 64.808594 L 350.847656 337.808594 L 23.847656 337.808594 Z M 23.847656 64.808594 " clip-rule="nonzero"/></clipPath></defs><rect x="-37.5" width="450" fill="#ffffff" y="-37.499999" height="449.999989" fill-opacity="1"/><rect x="-37.5" width="450" fill="#eff1db" y="-37.499999" height="449.999989" fill-opacity="1"/><g clip-path="url(#d20a332300)"><path fill="#944209" d="M 187.683594 318.75 C 109.992188 318.75 47.058594 255.382812 47.058594 178.125 C 47.058594 100.867188 109.992188 37.5 187.683594 37.5 C 265.375 37.5 328.308594 100.433594 328.308594 178.125 C 328.308594 255.816406 264.9375 318.75 187.683594 318.75 Z M 187.683594 46.179688 C 114.765625 46.179688 55.738281 105.207031 55.738281 178.125 C 55.738281 251.042969 114.765625 310.070312 187.683594 310.070312 C 260.597656 310.070312 319.625 251.042969 319.625 178.125 C 319.625 105.207031 260.164062 46.179688 187.683594 46.179688 Z M 187.683594 46.179688 " fill-opacity="1" fill-rule="nonzero"/></g><g clip-path="url(#b1221ea746)"><path fill="#944209" d="M 187.683594 318.75 C 109.992188 318.75 47.058594 255.382812 47.058594 178.125 C 47.058594 100.867188 109.992188 37.5 187.683594 37.5 C 265.375 37.5 328.308594 100.433594 328.308594 178.125 C 328.308594 255.816406 264.9375 318.75 187.683594 318.75 Z M 187.683594 46.179688 C 114.765625 46.179688 55.738281 105.207031 55.738281 178.125 C 55.738281 251.042969 114.765625 310.070312 187.683594 310.070312 C 260.597656 310.070312 319.625 251.042969 319.625 178.125 C 319.625 105.207031 260.164062 46.179688 187.683594 46.179688 Z M 187.683594 46.179688 " fill-opacity="1" fill-rule="nonzero"/></g><g clip-path="url(#9a89b5bac6)"><path fill="#944209" d="M 187.683594 318.75 C 109.992188 318.75 47.058594 255.382812 47.058594 178.125 C 47.058594 100.867188 109.992188 37.5 187.683594 37.5 C 265.375 37.5 328.308594 100.433594 328.308594 178.125 C 328.308594 255.816406 264.9375 318.75 187.683594 318.75 Z M 187.683594 46.179688 C 114.765625 46.179688 55.738281 105.207031 55.738281 178.125 C 55.738281 251.042969 114.765625 310.070312 187.683594 310.070312 C 260.597656 310.070312 319.625 251.042969 319.625 178.125 C 319.625 105.207031 260.164062 46.179688 187.683594 46.179688 Z M 187.683594 46.179688 " fill-opacity="1" fill-rule="nonzero"/></g><g fill="#545454" fill-opacity="1"><g transform="translate(63.901502, 95.660232)"><g><path d="M 5.03125 -7.375 C 5.3125 -7.164062 4.945312 -6.390625 3.9375 -5.046875 C 2.9375 -3.710938 2.296875 -3.148438 2.015625 -3.359375 L -8.171875 -11.015625 L -10.015625 -8.578125 C -10.179688 -8.347656 -10.613281 -8.421875 -11.3125 -8.796875 C -11.632812 -8.972656 -11.953125 -9.175781 -12.265625 -9.40625 C -12.578125 -9.644531 -12.867188 -9.898438 -13.140625 -10.171875 C -13.679688 -10.734375 -13.867188 -11.128906 -13.703125 -11.359375 L -7.0625 -20.1875 C -6.882812 -20.414062 -6.453125 -20.34375 -5.765625 -19.96875 C -5.441406 -19.78125 -5.125 -19.566406 -4.8125 -19.328125 C -4.5 -19.097656 -4.207031 -18.851562 -3.9375 -18.59375 C -3.382812 -18.03125 -3.195312 -17.632812 -3.375 -17.40625 L -5.15625 -15.03125 Z M 5.03125 -7.375 "/></g></g></g><g fill="#545454" fill-opacity="1"><g transform="translate(71.390226, 85.598449)"><g><path d="M 3.859375 -4.765625 C 4.054688 -4.585938 3.609375 -3.898438 2.515625 -2.703125 C 1.421875 -1.503906 0.78125 -0.988281 0.59375 -1.15625 L -11.65625 -12.296875 C -12.09375 -12.703125 -12.097656 -13.132812 -11.671875 -13.59375 L -8.40625 -17.1875 C -5.414062 -20.476562 -2.632812 -20.953125 -0.0625 -18.609375 C 0.707031 -17.910156 1.269531 -17.125 1.625 -16.25 C 1.988281 -15.375 2.113281 -14.488281 2 -13.59375 L 8.078125 -12.375 C 8.296875 -12 8.351562 -11.359375 8.25 -10.453125 C 8.09375 -9.203125 7.789062 -8.332031 7.34375 -7.84375 C 6.90625 -7.363281 6.398438 -7.164062 5.828125 -7.25 L 0.109375 -9.234375 L -0.40625 -8.65625 Z M -5.703125 -13.46875 L -2.875 -10.90625 L -2.796875 -11 C -1.710938 -12.1875 -1.671875 -13.226562 -2.671875 -14.125 C -3.117188 -14.53125 -3.554688 -14.71875 -3.984375 -14.6875 C -4.421875 -14.65625 -4.875 -14.378906 -5.34375 -13.859375 Z M -5.703125 -13.46875 "/></g></g></g><g fill="#545454" fill-opacity="1"><g transform="translate(81.365827, 74.696002)"><g><path d="M -0.203125 -14.328125 C 0.0234375 -14.546875 0.539062 -14.21875 1.34375 -13.34375 C 1.582031 -13.082031 1.835938 -12.742188 2.109375 -12.328125 C 2.390625 -11.921875 2.453125 -11.648438 2.296875 -11.515625 L -0.078125 -9.34375 L 1.625 -7.484375 L 5.078125 -10.640625 C 5.285156 -10.828125 5.679688 -10.679688 6.265625 -10.203125 C 6.523438 -9.992188 6.773438 -9.753906 7.015625 -9.484375 C 7.253906 -9.222656 7.53125 -8.84375 7.84375 -8.34375 C 8.164062 -7.851562 8.238281 -7.53125 8.0625 -7.375 L 1.65625 -1.5 C 1.175781 -1.070312 0.757812 -1.050781 0.40625 -1.4375 L -10.609375 -13.484375 C -10.910156 -13.816406 -10.914062 -14.113281 -10.625 -14.375 L -3.921875 -20.5 C -3.648438 -20.75 -3.003906 -20.316406 -1.984375 -19.203125 C -0.972656 -18.097656 -0.601562 -17.421875 -0.875 -17.171875 L -4.34375 -14.015625 L -2.625 -12.125 Z M -0.203125 -14.328125 "/></g></g></g><g fill="#545454" fill-opacity="1"><g transform="translate(90.3559, 66.327864)"><g><path d="M 10.59375 -7.890625 C 9.414062 -7.003906 8.640625 -6.710938 8.265625 -7.015625 L 5.625 -9.140625 L 2.390625 -6.71875 L 3.703125 -3.75 C 3.929688 -3.269531 3.4375 -2.570312 2.21875 -1.65625 C 1.5625 -1.164062 1.046875 -0.835938 0.671875 -0.671875 C 0.304688 -0.515625 0.109375 -0.457031 0.078125 -0.5 L -6.609375 -16.96875 C -6.691406 -17.070312 -5.804688 -17.816406 -3.953125 -19.203125 C -2.097656 -20.597656 -1.128906 -21.242188 -1.046875 -21.140625 L 12.78125 -9.984375 C 12.851562 -9.890625 12.597656 -9.582031 12.015625 -9.0625 C 11.441406 -8.550781 10.96875 -8.160156 10.59375 -7.890625 Z M 0.96875 -9.671875 L 3.109375 -11.28125 L -0.96875 -14.796875 L -1.09375 -14.703125 Z M 0.96875 -9.671875 "/></g></g></g><g fill="#545454" fill-opacity="1"><g transform="translate(103.516609, 56.576428)"><g><path d="M 7.421875 -4.953125 C 7.597656 -4.660156 6.96875 -4.082031 5.53125 -3.21875 C 4.101562 -2.351562 3.300781 -2.066406 3.125 -2.359375 L -3.484375 -13.265625 L -6.09375 -11.6875 C -6.34375 -11.53125 -6.71875 -11.757812 -7.21875 -12.375 C -7.445312 -12.65625 -7.660156 -12.960938 -7.859375 -13.296875 C -8.066406 -13.640625 -8.25 -13.984375 -8.40625 -14.328125 C -8.707031 -15.046875 -8.734375 -15.484375 -8.484375 -15.640625 L 0.96875 -21.359375 C 1.207031 -21.503906 1.578125 -21.273438 2.078125 -20.671875 C 2.316406 -20.378906 2.535156 -20.0625 2.734375 -19.71875 C 2.941406 -19.382812 3.117188 -19.050781 3.265625 -18.71875 C 3.566406 -17.988281 3.597656 -17.550781 3.359375 -17.40625 L 0.8125 -15.859375 Z M 7.421875 -4.953125 "/></g></g></g><g fill="#545454" fill-opacity="1"><g transform="translate(114.516365, 50.058277)"><g/></g></g><g fill="#545454" fill-opacity="1"><g transform="translate(118.726916, 47.708606)"><g><path d="M 7.9375 -4.046875 C 8.082031 -3.734375 7.394531 -3.234375 5.875 -2.546875 C 4.351562 -1.859375 3.519531 -1.671875 3.375 -1.984375 L -1.875 -13.59375 L -4.65625 -12.328125 C -4.914062 -12.210938 -5.257812 -12.488281 -5.6875 -13.15625 C -5.882812 -13.46875 -6.0625 -13.800781 -6.21875 -14.15625 C -6.382812 -14.507812 -6.519531 -14.867188 -6.625 -15.234375 C -6.84375 -15.992188 -6.820312 -16.429688 -6.5625 -16.546875 L 3.515625 -21.09375 C 3.765625 -21.207031 4.109375 -20.9375 4.546875 -20.28125 C 4.742188 -19.957031 4.921875 -19.617188 5.078125 -19.265625 C 5.242188 -18.910156 5.378906 -18.554688 5.484375 -18.203125 C 5.691406 -17.429688 5.671875 -16.988281 5.421875 -16.875 L 2.6875 -15.65625 Z M 7.9375 -4.046875 "/></g></g></g><g fill="#545454" fill-opacity="1"><g transform="translate(130.08695, 42.465055)"><g><path d="M 14.140625 -5.265625 C 14.234375 -4.984375 13.46875 -4.566406 11.84375 -4.015625 C 10.226562 -3.460938 9.375 -3.328125 9.28125 -3.609375 L 7.40625 -9.125 L 4.046875 -8 L 5.921875 -2.484375 C 6.015625 -2.203125 5.25 -1.785156 3.625 -1.234375 C 2.007812 -0.679688 1.15625 -0.546875 1.0625 -0.828125 L -4.34375 -16.765625 C -4.457031 -17.097656 -3.703125 -17.539062 -2.078125 -18.09375 C -0.460938 -18.644531 0.398438 -18.753906 0.515625 -18.421875 L 2.4375 -12.765625 L 5.796875 -13.890625 L 3.890625 -19.5 C 3.816406 -19.71875 4.164062 -20.007812 4.9375 -20.375 C 5.351562 -20.5625 5.757812 -20.722656 6.15625 -20.859375 L 7.390625 -21.21875 C 8.222656 -21.394531 8.675781 -21.375 8.75 -21.15625 Z M 14.140625 -5.265625 "/></g></g></g><g fill="#545454" fill-opacity="1"><g transform="translate(145.373304, 37.36995)"><g><path d="M 6.828125 -12.609375 C 7.140625 -12.679688 7.429688 -12.140625 7.703125 -10.984375 C 7.773438 -10.640625 7.832031 -10.222656 7.875 -9.734375 C 7.925781 -9.242188 7.847656 -8.972656 7.640625 -8.921875 L 4.5 -8.1875 L 5.0625 -5.734375 L 9.625 -6.796875 C 9.894531 -6.867188 10.171875 -6.546875 10.453125 -5.828125 C 10.566406 -5.523438 10.664062 -5.195312 10.75 -4.84375 C 10.832031 -4.5 10.890625 -4.035156 10.921875 -3.453125 C 10.960938 -2.867188 10.867188 -2.546875 10.640625 -2.484375 L 2.171875 -0.515625 C 1.546875 -0.359375 1.175781 -0.535156 1.0625 -1.046875 L -2.671875 -16.9375 C -2.765625 -17.375 -2.617188 -17.640625 -2.234375 -17.734375 L 6.609375 -19.8125 C 6.960938 -19.894531 7.304688 -19.207031 7.640625 -17.75 C 7.984375 -16.289062 7.976562 -15.519531 7.625 -15.4375 L 3.046875 -14.359375 L 3.640625 -11.859375 Z M 6.828125 -12.609375 "/></g></g></g><g fill="#545454" fill-opacity="1"><g transform="translate(157.121229, 34.276316)"><g><path d="M 18.921875 -2.09375 C 17.421875 -1.925781 16.65625 -2.015625 16.625 -2.359375 L 14.96875 -12.421875 L 13.03125 -1.828125 C 12.988281 -1.609375 12.425781 -1.4375 11.34375 -1.3125 C 10.269531 -1.195312 9.707031 -1.226562 9.65625 -1.40625 L 5.296875 -11.4375 L 6.09375 -1.328125 C 6.101562 -1.066406 5.800781 -0.851562 5.1875 -0.6875 C 4.570312 -0.53125 4.054688 -0.425781 3.640625 -0.375 C 3.234375 -0.332031 2.835938 -0.316406 2.453125 -0.328125 C 1.628906 -0.359375 1.203125 -0.523438 1.171875 -0.828125 L -0.0625 -17.28125 C -0.113281 -17.6875 0.882812 -18.003906 2.9375 -18.234375 C 3.539062 -18.304688 4.285156 -18.34375 5.171875 -18.34375 C 6.054688 -18.351562 6.566406 -18.226562 6.703125 -17.96875 L 10.40625 -10.328125 L 11.984375 -18.59375 C 12.085938 -19.039062 13.226562 -19.390625 15.40625 -19.640625 C 16.03125 -19.703125 16.78125 -19.734375 17.65625 -19.734375 C 18.53125 -19.742188 18.984375 -19.632812 19.015625 -19.40625 L 21.578125 -2.9375 C 21.597656 -2.75 21.285156 -2.570312 20.640625 -2.40625 C 20.003906 -2.25 19.429688 -2.144531 18.921875 -2.09375 Z M 18.921875 -2.09375 "/></g></g></g><g fill="#545454" fill-opacity="1"><g transform="translate(179.826426, 32.150089)"><g/></g></g><g fill="#545454" fill-opacity="1"><g transform="translate(184.685276, 31.978123)"><g><path d="M 1.0625 -1.46875 L 1.640625 -17.25 C 1.648438 -17.601562 2.515625 -17.75 4.234375 -17.6875 C 5.953125 -17.625 6.804688 -17.414062 6.796875 -17.0625 L 6.34375 -4.625 L 10.25 -4.484375 C 10.550781 -4.472656 10.75 -4.066406 10.84375 -3.265625 C 10.882812 -2.878906 10.894531 -2.484375 10.875 -2.078125 C 10.863281 -1.671875 10.828125 -1.253906 10.765625 -0.828125 C 10.597656 -0.0234375 10.363281 0.367188 10.0625 0.359375 L 2.234375 0.078125 C 1.859375 0.0664062 1.566406 -0.09375 1.359375 -0.40625 C 1.148438 -0.726562 1.050781 -1.082031 1.0625 -1.46875 Z M 1.0625 -1.46875 "/></g></g></g><g fill="#545454" fill-opacity="1"><g transform="translate(195.6571, 32.376334)"><g><path d="M 3.421875 -4.015625 L 4.421875 -13 L 2.625 -13.203125 C 2.34375 -13.234375 2.175781 -13.613281 2.125 -14.34375 C 2.113281 -14.707031 2.128906 -15.078125 2.171875 -15.453125 C 2.210938 -15.828125 2.28125 -16.179688 2.375 -16.515625 C 2.582031 -17.234375 2.828125 -17.578125 3.109375 -17.546875 L 11.578125 -16.609375 C 11.867188 -16.578125 12.023438 -16.1875 12.046875 -15.4375 C 12.066406 -15.09375 12.054688 -14.734375 12.015625 -14.359375 C 11.972656 -13.984375 11.898438 -13.617188 11.796875 -13.265625 C 11.617188 -12.566406 11.382812 -12.234375 11.09375 -12.265625 L 9.40625 -12.453125 L 8.40625 -3.46875 L 10.171875 -3.265625 C 10.460938 -3.234375 10.625 -2.851562 10.65625 -2.125 C 10.6875 -1.757812 10.679688 -1.390625 10.640625 -1.015625 C 10.597656 -0.640625 10.523438 -0.285156 10.421875 0.046875 C 10.222656 0.765625 9.976562 1.109375 9.6875 1.078125 L 1.1875 0.125 C 0.90625 0.09375 0.753906 -0.289062 0.734375 -1.03125 C 0.703125 -1.375 0.707031 -1.734375 0.75 -2.109375 C 0.789062 -2.484375 0.863281 -2.847656 0.96875 -3.203125 C 1.15625 -3.910156 1.390625 -4.25 1.671875 -4.21875 Z M 3.421875 -4.015625 "/></g></g></g><g fill="#545454" fill-opacity="1"><g transform="translate(206.321822, 33.443517)"><g><path d="M 6.296875 0.90625 C 6.242188 1.164062 5.441406 1.132812 3.890625 0.8125 L 2.515625 0.453125 C 1.679688 0.210938 1.28125 0.015625 1.3125 -0.140625 L 4.703125 -16.84375 C 4.753906 -17.125 5.609375 -17.09375 7.265625 -16.75 C 8.929688 -16.414062 9.738281 -16.109375 9.6875 -15.828125 L 8.390625 -9.453125 L 12.734375 -15.21875 C 12.890625 -15.425781 13.570312 -15.40625 14.78125 -15.15625 C 16.988281 -14.707031 18.113281 -14.285156 18.15625 -13.890625 C 18.144531 -13.859375 18.128906 -13.820312 18.109375 -13.78125 L 12.1875 -6.84375 L 15.8125 1.109375 C 15.800781 1.148438 15.617188 1.257812 15.265625 1.4375 C 14.359375 1.945312 13.351562 2.285156 12.25 2.453125 C 11.914062 2.515625 11.585938 2.515625 11.265625 2.453125 L 10.6875 2.28125 C 10.175781 2.03125 9.832031 1.601562 9.65625 1 L 7.890625 -5 L 7.5 -5.078125 Z M 6.296875 0.90625 "/></g></g></g><g fill="#545454" fill-opacity="1"><g transform="translate(221.518077, 36.593367)"><g><path d="M 12.21875 -7.484375 C 12.519531 -7.390625 12.5 -6.773438 12.15625 -5.640625 C 12.050781 -5.304688 11.894531 -4.914062 11.6875 -4.46875 C 11.476562 -4.03125 11.273438 -3.84375 11.078125 -3.90625 L 8 -4.84375 L 7.265625 -2.421875 L 11.734375 -1.0625 C 12.003906 -0.976562 12.078125 -0.5625 11.953125 0.1875 C 11.910156 0.507812 11.835938 0.84375 11.734375 1.1875 C 11.628906 1.53125 11.445312 1.960938 11.1875 2.484375 C 10.925781 3.015625 10.679688 3.242188 10.453125 3.171875 L 2.140625 0.65625 C 1.523438 0.46875 1.296875 0.125 1.453125 -0.375 L 6.1875 -16 C 6.320312 -16.425781 6.578125 -16.582031 6.953125 -16.46875 L 15.640625 -13.84375 C 15.984375 -13.726562 15.9375 -12.953125 15.5 -11.515625 C 15.0625 -10.078125 14.671875 -9.414062 14.328125 -9.53125 L 9.84375 -10.890625 L 9.09375 -8.4375 Z M 12.21875 -7.484375 "/></g></g></g><g fill="#545454" fill-opacity="1"><g transform="translate(233.504796, 40.355177)"><g/></g></g><g fill="#545454" fill-opacity="1"><g transform="translate(238.078026, 41.939307)"><g><path d="M 16.984375 -11.984375 C 17.253906 -11.867188 17.085938 -11.125 16.484375 -9.75 C 15.878906 -8.375 15.441406 -7.742188 15.171875 -7.859375 L 10.921875 -9.71875 L 9.765625 -7.0625 L 12.609375 -5.828125 C 12.867188 -5.710938 12.734375 -5.050781 12.203125 -3.84375 C 11.679688 -2.644531 11.296875 -2.097656 11.046875 -2.203125 L 8.1875 -3.453125 L 5.734375 2.15625 C 5.640625 2.375 5.285156 2.390625 4.671875 2.203125 C 4.066406 2.015625 3.570312 1.835938 3.1875 1.671875 L 2.109375 1.140625 C 1.390625 0.710938 1.078125 0.390625 1.171875 0.171875 L 7.890625 -15.21875 C 8.003906 -15.46875 8.128906 -15.609375 8.265625 -15.640625 C 8.398438 -15.679688 8.566406 -15.660156 8.765625 -15.578125 Z M 16.984375 -11.984375 "/></g></g></g><g fill="#545454" fill-opacity="1"><g transform="translate(248.905724, 46.534531)"><g><path d="M 11.515625 6.46875 C 10.234375 5.75 9.648438 5.148438 9.765625 4.671875 L 10.640625 1.421875 L 7.109375 -0.546875 L 4.921875 1.84375 C 4.578125 2.25 3.742188 2.082031 2.421875 1.34375 C 1.710938 0.945312 1.207031 0.613281 0.90625 0.34375 C 0.613281 0.0703125 0.476562 -0.0820312 0.5 -0.125 L 12.796875 -12.953125 C 12.859375 -13.078125 13.898438 -12.578125 15.921875 -11.453125 C 17.941406 -10.328125 18.921875 -9.703125 18.859375 -9.578125 L 14.328125 7.609375 C 14.273438 7.703125 13.894531 7.585938 13.1875 7.265625 C 12.476562 6.953125 11.921875 6.6875 11.515625 6.46875 Z M 9.234375 -3.046875 L 11.5625 -1.75 L 13.125 -6.921875 L 13 -7 Z M 9.234375 -3.046875 "/></g></g></g><g fill="#545454" fill-opacity="1"><g transform="translate(263.142138, 54.179236)"><g><path d="M 15.265625 11.40625 C 14.054688 10.5 13.554688 9.90625 13.765625 9.625 L 19.40625 1.140625 L 10.78125 7.578125 C 10.59375 7.691406 10.0625 7.425781 9.1875 6.78125 C 8.320312 6.132812 7.9375 5.722656 8.03125 5.546875 L 11.671875 -4.734375 L 5.359375 3.1875 C 5.191406 3.382812 4.828125 3.332031 4.265625 3.03125 C 3.710938 2.738281 3.265625 2.46875 2.921875 2.21875 C 2.585938 1.96875 2.285156 1.707031 2.015625 1.4375 C 1.429688 0.851562 1.234375 0.441406 1.421875 0.203125 L 11.734375 -12.6875 C 11.984375 -13.007812 12.9375 -12.554688 14.59375 -11.328125 C 15.082031 -10.960938 15.648438 -10.476562 16.296875 -9.875 C 16.941406 -9.269531 17.226562 -8.832031 17.15625 -8.5625 L 14.671875 -0.453125 L 21.453125 -5.40625 C 21.835938 -5.664062 22.910156 -5.144531 24.671875 -3.84375 C 25.171875 -3.46875 25.738281 -2.976562 26.375 -2.375 C 27.019531 -1.78125 27.273438 -1.394531 27.140625 -1.21875 L 17.796875 12.59375 C 17.679688 12.738281 17.332031 12.648438 16.75 12.328125 C 16.164062 12.015625 15.671875 11.707031 15.265625 11.40625 Z M 15.265625 11.40625 "/></g></g></g><g fill="#545454" fill-opacity="1"><g transform="translate(281.12802, 67.959199)"><g><path d="M 5.140625 -1.171875 L 11.328125 -7.765625 L 10 -9 C 9.800781 -9.195312 9.898438 -9.601562 10.296875 -10.21875 C 10.503906 -10.507812 10.734375 -10.789062 10.984375 -11.0625 C 11.242188 -11.34375 11.515625 -11.59375 11.796875 -11.8125 C 12.390625 -12.269531 12.785156 -12.398438 12.984375 -12.203125 L 19.21875 -6.375 C 19.425781 -6.175781 19.320312 -5.769531 18.90625 -5.15625 C 18.707031 -4.863281 18.476562 -4.578125 18.21875 -4.296875 C 17.96875 -4.023438 17.695312 -3.78125 17.40625 -3.5625 C 16.832031 -3.101562 16.441406 -2.972656 16.234375 -3.171875 L 14.984375 -4.328125 L 8.796875 2.265625 L 10.09375 3.484375 C 10.3125 3.679688 10.21875 4.082031 9.8125 4.6875 C 9.613281 5 9.382812 5.289062 9.125 5.5625 C 8.875 5.832031 8.601562 6.070312 8.3125 6.28125 C 7.726562 6.738281 7.328125 6.867188 7.109375 6.671875 L 0.859375 0.8125 C 0.660156 0.613281 0.769531 0.21875 1.1875 -0.375 C 1.382812 -0.675781 1.609375 -0.960938 1.859375 -1.234375 C 2.117188 -1.503906 2.394531 -1.75 2.6875 -1.96875 C 3.257812 -2.4375 3.644531 -2.570312 3.84375 -2.375 Z M 5.140625 -1.171875 "/></g></g></g><g fill="#545454" fill-opacity="1"><g transform="translate(289.033266, 75.357792)"><g><path d="M 1.796875 -0.265625 L 13.421875 -10.96875 C 13.679688 -11.207031 14.390625 -10.691406 15.546875 -9.421875 C 16.710938 -8.160156 17.164062 -7.410156 16.90625 -7.171875 L 7.734375 1.265625 L 10.390625 4.140625 C 10.585938 4.359375 10.4375 4.785156 9.9375 5.421875 C 9.695312 5.722656 9.425781 6.007812 9.125 6.28125 C 8.832031 6.550781 8.503906 6.8125 8.140625 7.0625 C 7.460938 7.507812 7.019531 7.625 6.8125 7.40625 L 1.515625 1.640625 C 1.253906 1.367188 1.160156 1.046875 1.234375 0.671875 C 1.316406 0.304688 1.503906 -0.00390625 1.796875 -0.265625 Z M 1.796875 -0.265625 "/></g></g></g><g fill="#545454" fill-opacity="1"><g transform="translate(296.474401, 83.279786)"><g><path d="M 19.59375 -2.296875 C 20.1875 -2.472656 21.078125 -1.789062 22.265625 -0.25 C 22.566406 0.144531 22.894531 0.625 23.25 1.1875 C 23.601562 1.757812 23.722656 2.054688 23.609375 2.078125 L 11.96875 4.34375 L 7.046875 8.109375 C 6.828125 8.285156 6.382812 8.046875 5.71875 7.390625 C 5.382812 7.054688 5.078125 6.707031 4.796875 6.34375 C 4.523438 5.976562 4.269531 5.597656 4.03125 5.203125 C 3.550781 4.390625 3.429688 3.890625 3.671875 3.703125 L 8.46875 0.03125 L 13.65625 -10.8125 C 13.695312 -10.9375 13.984375 -10.722656 14.515625 -10.171875 C 15.046875 -9.617188 15.472656 -9.140625 15.796875 -8.734375 C 17.054688 -7.078125 17.515625 -5.984375 17.171875 -5.453125 L 14.171875 -0.828125 Z M 19.59375 -2.296875 "/></g></g></g><g fill="#089400" fill-opacity="1"><g transform="translate(65.714945, 199.889444)"><g><path d="M 7.671875 0.109375 C 4.273438 0.109375 2.578125 -0.265625 2.578125 -1.015625 L 2.578125 -37.296875 C 2.578125 -38.566406 3.15625 -39.203125 4.3125 -39.203125 L 14.171875 -39.203125 C 19.691406 -39.203125 23.675781 -38.0625 26.125 -35.78125 C 28.570312 -33.507812 29.796875 -30.207031 29.796875 -25.875 C 29.796875 -22.289062 28.632812 -19.003906 26.3125 -16.015625 C 25.15625 -14.523438 23.457031 -13.332031 21.21875 -12.4375 C 18.976562 -11.539062 16.367188 -11.09375 13.390625 -11.09375 L 13.390625 -1.0625 C 13.390625 -0.613281 12.6875 -0.304688 11.28125 -0.140625 C 9.882812 0.0234375 8.679688 0.109375 7.671875 0.109375 Z M 13.390625 -29.453125 L 13.390625 -20.609375 L 14.109375 -20.609375 C 15.421875 -20.609375 16.523438 -21.019531 17.421875 -21.84375 C 18.316406 -22.664062 18.765625 -23.820312 18.765625 -25.3125 C 18.765625 -26.800781 18.453125 -27.863281 17.828125 -28.5 C 17.210938 -29.132812 16.125 -29.453125 14.5625 -29.453125 Z M 13.390625 -29.453125 "/></g></g></g><g fill="#089400" fill-opacity="1"><g transform="translate(99.31049, 199.889444)"><g><path d="M 21 -23.625 C 21.707031 -23.625 22.0625 -22.320312 22.0625 -19.71875 C 22.0625 -18.925781 21.976562 -18 21.8125 -16.9375 C 21.644531 -15.875 21.335938 -15.34375 20.890625 -15.34375 L 13.78125 -15.34375 L 13.78125 -9.75 L 24.078125 -9.75 C 24.710938 -9.75 25.144531 -8.925781 25.375 -7.28125 C 25.476562 -6.570312 25.53125 -5.816406 25.53125 -5.015625 C 25.53125 -4.210938 25.414062 -3.175781 25.1875 -1.90625 C 24.96875 -0.632812 24.597656 0 24.078125 0 L 4.921875 0 C 3.503906 0 2.796875 -0.578125 2.796875 -1.734375 L 2.796875 -37.75 C 2.796875 -38.71875 3.226562 -39.203125 4.09375 -39.203125 L 24.140625 -39.203125 C 24.921875 -39.203125 25.3125 -37.546875 25.3125 -34.234375 C 25.3125 -30.929688 24.921875 -29.28125 24.140625 -29.28125 L 13.78125 -29.28125 L 13.78125 -23.625 Z M 21 -23.625 "/></g></g></g><g fill="#089400" fill-opacity="1"><g transform="translate(128.594635, 199.889444)"><g><path d="M 19.65625 -0.890625 C 19.65625 -0.148438 17.804688 0.21875 14.109375 0.21875 C 10.410156 0.21875 8.5625 -0.148438 8.5625 -0.890625 L 8.5625 -29.015625 L 1.84375 -29.015625 C 1.207031 -29.015625 0.757812 -29.867188 0.5 -31.578125 C 0.394531 -32.398438 0.34375 -33.238281 0.34375 -34.09375 C 0.34375 -34.957031 0.394531 -35.800781 0.5 -36.625 C 0.757812 -38.34375 1.207031 -39.203125 1.84375 -39.203125 L 26.203125 -39.203125 C 26.835938 -39.203125 27.285156 -38.34375 27.546875 -36.625 C 27.660156 -35.800781 27.71875 -34.957031 27.71875 -34.09375 C 27.71875 -33.238281 27.660156 -32.398438 27.546875 -31.578125 C 27.285156 -29.867188 26.835938 -29.015625 26.203125 -29.015625 L 19.65625 -29.015625 Z M 19.65625 -0.890625 "/></g></g></g><g fill="#089400" fill-opacity="1"><g transform="translate(158.382705, 199.889444)"><g/></g></g><g fill="#089400" fill-opacity="1"><g transform="translate(170.589236, 199.889444)"><g><path d="M 7.671875 0.109375 C 4.273438 0.109375 2.578125 -0.265625 2.578125 -1.015625 L 2.578125 -37.296875 C 2.578125 -38.566406 3.15625 -39.203125 4.3125 -39.203125 L 14.171875 -39.203125 C 19.691406 -39.203125 23.675781 -38.0625 26.125 -35.78125 C 28.570312 -33.507812 29.796875 -30.207031 29.796875 -25.875 C 29.796875 -22.289062 28.632812 -19.003906 26.3125 -16.015625 C 25.15625 -14.523438 23.457031 -13.332031 21.21875 -12.4375 C 18.976562 -11.539062 16.367188 -11.09375 13.390625 -11.09375 L 13.390625 -1.0625 C 13.390625 -0.613281 12.6875 -0.304688 11.28125 -0.140625 C 9.882812 0.0234375 8.679688 0.109375 7.671875 0.109375 Z M 13.390625 -29.453125 L 13.390625 -20.609375 L 14.109375 -20.609375 C 15.421875 -20.609375 16.523438 -21.019531 17.421875 -21.84375 C 18.316406 -22.664062 18.765625 -23.820312 18.765625 -25.3125 C 18.765625 -26.800781 18.453125 -27.863281 17.828125 -28.5 C 17.210938 -29.132812 16.125 -29.453125 14.5625 -29.453125 Z M 13.390625 -29.453125 "/></g></g></g><g fill="#089400" fill-opacity="1"><g transform="translate(204.184784, 199.889444)"><g><path d="M 13.5 -0.78125 C 13.5 -0.1875 11.722656 0.109375 8.171875 0.109375 C 4.585938 0.109375 2.796875 -0.171875 2.796875 -0.734375 L 2.796875 -37.234375 C 2.796875 -38.546875 3.488281 -39.203125 4.875 -39.203125 L 15.5625 -39.203125 C 25.382812 -39.203125 30.296875 -35.375 30.296875 -27.71875 C 30.296875 -25.40625 29.847656 -23.304688 28.953125 -21.421875 C 28.054688 -19.535156 26.785156 -18.03125 25.140625 -16.90625 L 32.203125 -5.15625 C 31.898438 -4.257812 30.925781 -3.234375 29.28125 -2.078125 C 27.039062 -0.460938 25.191406 0.34375 23.734375 0.34375 C 22.285156 0.34375 21.207031 -0.179688 20.5 -1.234375 L 15.234375 -13.5 L 13.5 -13.5 Z M 13.5 -29.28125 L 13.5 -20.890625 L 13.78125 -20.890625 C 17.320312 -20.890625 19.09375 -22.363281 19.09375 -25.3125 C 19.09375 -26.65625 18.75 -27.648438 18.0625 -28.296875 C 17.375 -28.953125 16.242188 -29.28125 14.671875 -29.28125 Z M 13.5 -29.28125 "/></g></g></g><g fill="#089400" fill-opacity="1"><g transform="translate(238.900171, 199.889444)"><g><path d="M 19.453125 0.5625 C 14.210938 0.5625 9.941406 -1.15625 6.640625 -4.59375 C 3.335938 -8.03125 1.6875 -13.039062 1.6875 -19.625 C 1.6875 -26.21875 3.351562 -31.210938 6.6875 -34.609375 C 10.03125 -38.003906 14.34375 -39.703125 19.625 -39.703125 C 24.90625 -39.703125 29.171875 -38.03125 32.421875 -34.6875 C 35.671875 -31.351562 37.296875 -26.296875 37.296875 -19.515625 C 37.296875 -12.742188 35.632812 -7.703125 32.3125 -4.390625 C 28.988281 -1.085938 24.703125 0.5625 19.453125 0.5625 Z M 19.484375 -28.953125 C 17.691406 -28.953125 16.1875 -28.128906 14.96875 -26.484375 C 13.757812 -24.847656 13.15625 -22.546875 13.15625 -19.578125 C 13.15625 -16.609375 13.734375 -14.328125 14.890625 -12.734375 C 16.046875 -11.148438 17.566406 -10.359375 19.453125 -10.359375 C 21.335938 -10.359375 22.867188 -11.160156 24.046875 -12.765625 C 25.222656 -14.367188 25.8125 -16.664062 25.8125 -19.65625 C 25.8125 -22.644531 25.203125 -24.941406 23.984375 -26.546875 C 22.773438 -28.148438 21.273438 -28.953125 19.484375 -28.953125 Z M 19.484375 -28.953125 "/></g></g></g><g fill="#089400" fill-opacity="1"><g transform="translate(279.550738, 199.889444)"><g><path d="M 4.25 -13.65625 C 4.957031 -13.101562 6.179688 -12.335938 7.921875 -11.359375 C 9.660156 -10.390625 11.320312 -9.90625 12.90625 -9.90625 C 14.488281 -9.90625 15.28125 -10.523438 15.28125 -11.765625 C 15.28125 -12.316406 15.054688 -12.804688 14.609375 -13.234375 C 14.160156 -13.671875 13.335938 -14.164062 12.140625 -14.71875 C 10.953125 -15.28125 10.054688 -15.71875 9.453125 -16.03125 C 8.859375 -16.351562 8.066406 -16.878906 7.078125 -17.609375 C 6.085938 -18.335938 5.332031 -19.09375 4.8125 -19.875 C 3.320312 -22.007812 2.578125 -24.71875 2.578125 -28 C 2.578125 -31.28125 3.796875 -34.050781 6.234375 -36.3125 C 8.679688 -38.570312 11.882812 -39.703125 15.84375 -39.703125 C 18.53125 -39.703125 21.015625 -39.410156 23.296875 -38.828125 C 25.578125 -38.253906 26.753906 -37.5 26.828125 -36.5625 C 26.828125 -36.457031 26.828125 -36.347656 26.828125 -36.234375 C 26.828125 -34.921875 26.414062 -33.265625 25.59375 -31.265625 C 24.769531 -29.273438 24.191406 -28.164062 23.859375 -27.9375 C 21.460938 -29.175781 19.320312 -29.796875 17.4375 -29.796875 C 15.550781 -29.796875 14.609375 -29.125 14.609375 -27.78125 C 14.609375 -26.957031 15.300781 -26.226562 16.6875 -25.59375 C 16.988281 -25.445312 17.414062 -25.238281 17.96875 -24.96875 C 18.53125 -24.707031 19.175781 -24.398438 19.90625 -24.046875 C 20.632812 -23.691406 21.414062 -23.242188 22.25 -22.703125 C 23.09375 -22.160156 24 -21.441406 24.96875 -20.546875 C 26.945312 -18.679688 27.9375 -16.21875 27.9375 -13.15625 C 27.9375 -9.164062 26.835938 -5.898438 24.640625 -3.359375 C 22.441406 -0.816406 19.046875 0.488281 14.453125 0.5625 C 12.210938 0.5625 10.1875 0.375 8.375 0 C 6.5625 -0.375 4.984375 -1.101562 3.640625 -2.1875 C 2.296875 -3.269531 1.625 -4.578125 1.625 -6.109375 C 1.625 -7.640625 1.898438 -9.160156 2.453125 -10.671875 C 3.015625 -12.179688 3.613281 -13.175781 4.25 -13.65625 Z M 4.25 -13.65625 "/></g></g></g><g fill="#545454" fill-opacity="1"><g transform="translate(76.916859, 315.986992)"><g><path d="M 19.015625 -0.8125 C 17.847656 0.507812 16.394531 1.003906 14.65625 0.671875 C 15.070312 1.460938 15.242188 2.320312 15.171875 3.25 C 15.097656 4.175781 14.609375 5.148438 13.703125 6.171875 C 12.804688 7.191406 11.71875 7.664062 10.4375 7.59375 C 9.15625 7.53125 7.8125 6.878906 6.40625 5.640625 L 1.90625 1.6875 C 1.6875 1.488281 1.566406 1.253906 1.546875 0.984375 C 1.535156 0.710938 1.640625 0.457031 1.859375 0.21875 L 12.59375 -11.984375 C 12.71875 -12.117188 12.820312 -12.1875 12.90625 -12.1875 C 13 -12.195312 13.113281 -12.140625 13.25 -12.015625 L 17.59375 -8.1875 C 20.570312 -5.570312 21.046875 -3.113281 19.015625 -0.8125 Z M 13.84375 -6 L 11.640625 -3.5 L 11.734375 -3.421875 C 12.960938 -2.347656 13.9375 -2.21875 14.65625 -3.03125 C 15.039062 -3.476562 15.203125 -3.90625 15.140625 -4.3125 C 15.085938 -4.726562 14.789062 -5.175781 14.25 -5.65625 Z M 9.671875 -1.265625 L 7.484375 1.21875 L 7.828125 1.515625 C 8.378906 1.992188 8.867188 2.242188 9.296875 2.265625 C 9.734375 2.285156 10.144531 2.070312 10.53125 1.625 C 10.925781 1.1875 11.082031 0.769531 11 0.375 C 10.925781 -0.0078125 10.617188 -0.441406 10.078125 -0.921875 Z M 9.671875 -1.265625 "/></g></g></g><g fill="#545454" fill-opacity="1"><g transform="translate(89.272652, 326.702813)"><g><path d="M 13.984375 -3.140625 C 14.242188 -2.953125 14.023438 -2.375 13.328125 -1.40625 C 13.128906 -1.113281 12.859375 -0.789062 12.515625 -0.4375 C 12.171875 -0.09375 11.914062 0.015625 11.75 -0.109375 L 9.140625 -1.984375 L 7.65625 0.0625 L 11.4375 2.796875 C 11.664062 2.953125 11.601562 3.367188 11.25 4.046875 C 11.101562 4.335938 10.925781 4.628906 10.71875 4.921875 C 10.507812 5.210938 10.195312 5.5625 9.78125 5.96875 C 9.363281 6.382812 9.054688 6.523438 8.859375 6.390625 L 1.8125 1.3125 C 1.289062 0.925781 1.179688 0.519531 1.484375 0.09375 L 11.03125 -13.140625 C 11.289062 -13.503906 11.582031 -13.566406 11.90625 -13.328125 L 19.265625 -8.03125 C 19.554688 -7.8125 19.265625 -7.09375 18.390625 -5.875 C 17.515625 -4.664062 16.929688 -4.171875 16.640625 -4.390625 L 12.84375 -7.125 L 11.34375 -5.046875 Z M 13.984375 -3.140625 "/></g></g></g><g fill="#545454" fill-opacity="1"><g transform="translate(100.45669, 334.740103)"><g><path d="M 16.453125 -11.21875 C 17.523438 -10.59375 18.378906 -9.894531 19.015625 -9.125 C 19.648438 -8.351562 19.816406 -7.710938 19.515625 -7.203125 C 19.210938 -6.691406 18.644531 -6.171875 17.8125 -5.640625 C 16.988281 -5.117188 16.445312 -4.929688 16.1875 -5.078125 C 16.113281 -5.117188 16.050781 -5.207031 16 -5.34375 C 15.945312 -5.476562 15.773438 -5.691406 15.484375 -5.984375 C 15.203125 -6.285156 14.9375 -6.507812 14.6875 -6.65625 C 13.84375 -7.144531 12.988281 -7.242188 12.125 -6.953125 C 11.257812 -6.660156 10.460938 -5.894531 9.734375 -4.65625 C 9.015625 -3.425781 8.742188 -2.359375 8.921875 -1.453125 C 9.109375 -0.546875 9.609375 0.144531 10.421875 0.625 C 10.765625 0.820312 11.171875 0.992188 11.640625 1.140625 C 12.109375 1.296875 12.484375 1.335938 12.765625 1.265625 C 12.804688 1.242188 12.875 1.257812 12.96875 1.3125 C 13.0625 1.375 13.128906 1.632812 13.171875 2.09375 C 13.210938 2.5625 13.179688 3.125 13.078125 3.78125 C 12.972656 4.445312 12.835938 4.925781 12.671875 5.21875 C 12.335938 5.78125 11.632812 5.972656 10.5625 5.796875 C 9.488281 5.617188 8.351562 5.179688 7.15625 4.484375 C 5.21875 3.347656 4.023438 1.738281 3.578125 -0.34375 C 3.128906 -2.425781 3.628906 -4.703125 5.078125 -7.171875 C 6.535156 -9.648438 8.316406 -11.222656 10.421875 -11.890625 C 12.523438 -12.566406 14.535156 -12.34375 16.453125 -11.21875 Z M 16.453125 -11.21875 "/></g></g></g><g fill="#545454" fill-opacity="1"><g transform="translate(113.936276, 342.619119)"><g><path d="M 12.03125 5.4375 C 10.695312 4.84375 10.066406 4.304688 10.140625 3.828125 L 10.71875 0.484375 L 7.03125 -1.171875 L 5.0625 1.40625 C 4.757812 1.84375 3.914062 1.75 2.53125 1.125 C 1.78125 0.789062 1.242188 0.503906 0.921875 0.265625 C 0.609375 0.0234375 0.460938 -0.117188 0.484375 -0.171875 L 11.625 -14.03125 C 11.675781 -14.15625 12.757812 -13.742188 14.875 -12.796875 C 16.988281 -11.847656 18.019531 -11.3125 17.96875 -11.1875 L 14.9375 6.328125 C 14.882812 6.429688 14.488281 6.351562 13.75 6.09375 C 13.019531 5.84375 12.445312 5.625 12.03125 5.4375 Z M 8.921875 -3.84375 L 11.359375 -2.75 L 12.46875 -8.03125 L 12.34375 -8.09375 Z M 8.921875 -3.84375 "/></g></g></g><g fill="#545454" fill-opacity="1"><g transform="translate(130.446002, 349.89847)"><g><path d="M 14.328125 -13.578125 C 14.429688 -13.898438 15.359375 -13.785156 17.109375 -13.234375 C 18.859375 -12.679688 19.679688 -12.242188 19.578125 -11.921875 L 16.0625 -0.796875 C 15.539062 0.847656 14.523438 2 13.015625 2.65625 C 11.515625 3.320312 9.726562 3.328125 7.65625 2.671875 C 5.582031 2.015625 4.066406 0.945312 3.109375 -0.53125 C 2.148438 -2.007812 1.960938 -3.660156 2.546875 -5.484375 L 5.9375 -16.203125 C 6.039062 -16.523438 6.960938 -16.410156 8.703125 -15.859375 C 10.453125 -15.304688 11.273438 -14.867188 11.171875 -14.546875 L 7.71875 -3.640625 C 7.613281 -3.304688 7.707031 -2.992188 8 -2.703125 C 8.28125 -2.390625 8.613281 -2.171875 9 -2.046875 C 9.382812 -1.921875 9.765625 -1.894531 10.140625 -1.96875 C 10.515625 -2.050781 10.757812 -2.273438 10.875 -2.640625 Z M 14.328125 -13.578125 "/></g></g></g><g fill="#545454" fill-opacity="1"><g transform="translate(146.950249, 354.979157)"><g><path d="M 3.140625 -5.6875 C 3.398438 -5.363281 3.875 -4.90625 4.5625 -4.3125 C 5.25 -3.726562 5.941406 -3.363281 6.640625 -3.21875 C 7.347656 -3.082031 7.757812 -3.285156 7.875 -3.828125 C 7.925781 -4.085938 7.867188 -4.332031 7.703125 -4.5625 C 7.546875 -4.789062 7.226562 -5.082031 6.75 -5.4375 C 6.269531 -5.789062 5.910156 -6.0625 5.671875 -6.25 C 5.429688 -6.445312 5.125 -6.753906 4.75 -7.171875 C 4.382812 -7.585938 4.117188 -7.992188 3.953125 -8.390625 C 3.484375 -9.472656 3.394531 -10.742188 3.6875 -12.203125 C 3.988281 -13.660156 4.785156 -14.773438 6.078125 -15.546875 C 7.378906 -16.328125 8.910156 -16.539062 10.671875 -16.1875 C 11.859375 -15.9375 12.929688 -15.578125 13.890625 -15.109375 C 14.847656 -14.648438 15.296875 -14.210938 15.234375 -13.796875 C 15.222656 -13.742188 15.210938 -13.695312 15.203125 -13.65625 C 15.085938 -13.082031 14.757812 -12.382812 14.21875 -11.5625 C 13.675781 -10.75 13.316406 -10.304688 13.140625 -10.234375 C 12.191406 -11.003906 11.296875 -11.472656 10.453125 -11.640625 C 9.617188 -11.816406 9.140625 -11.609375 9.015625 -11.015625 C 8.941406 -10.640625 9.179688 -10.253906 9.734375 -9.859375 C 9.859375 -9.753906 10.03125 -9.613281 10.25 -9.4375 C 10.476562 -9.269531 10.738281 -9.078125 11.03125 -8.859375 C 11.320312 -8.648438 11.628906 -8.382812 11.953125 -8.0625 C 12.285156 -7.738281 12.625 -7.332031 12.96875 -6.84375 C 13.675781 -5.832031 13.890625 -4.648438 13.609375 -3.296875 C 13.242188 -1.523438 12.453125 -0.175781 11.234375 0.75 C 10.023438 1.675781 8.398438 1.945312 6.359375 1.5625 C 5.367188 1.363281 4.488281 1.097656 3.71875 0.765625 C 2.945312 0.429688 2.3125 -0.0351562 1.8125 -0.640625 C 1.3125 -1.253906 1.128906 -1.898438 1.265625 -2.578125 C 1.410156 -3.253906 1.675781 -3.898438 2.0625 -4.515625 C 2.445312 -5.128906 2.804688 -5.519531 3.140625 -5.6875 Z M 3.140625 -5.6875 "/></g></g></g><g fill="#545454" fill-opacity="1"><g transform="translate(161.378782, 357.860057)"><g><path d="M 10.625 -9.609375 C 10.945312 -9.578125 11.046875 -8.972656 10.921875 -7.796875 C 10.878906 -7.441406 10.796875 -7.023438 10.671875 -6.546875 C 10.546875 -6.066406 10.378906 -5.835938 10.171875 -5.859375 L 6.984375 -6.21875 L 6.703125 -3.703125 L 11.34375 -3.1875 C 11.625 -3.15625 11.773438 -2.765625 11.796875 -2.015625 C 11.804688 -1.679688 11.789062 -1.332031 11.75 -0.96875 C 11.707031 -0.613281 11.609375 -0.160156 11.453125 0.390625 C 11.296875 0.953125 11.097656 1.222656 10.859375 1.203125 L 2.21875 0.25 C 1.582031 0.175781 1.296875 -0.117188 1.359375 -0.640625 L 3.140625 -16.859375 C 3.191406 -17.304688 3.410156 -17.507812 3.796875 -17.46875 L 12.828125 -16.46875 C 13.191406 -16.425781 13.289062 -15.660156 13.125 -14.171875 C 12.96875 -12.679688 12.707031 -11.957031 12.34375 -12 L 7.6875 -12.515625 L 7.390625 -9.96875 Z M 10.625 -9.609375 "/></g></g></g><g fill="#545454" fill-opacity="1"><g transform="translate(174.822607, 359.195518)"><g/></g></g><g fill="#545454" fill-opacity="1"><g transform="translate(180.59065, 359.566214)"><g><path d="M 8.90625 -0.546875 C 8.90625 -0.203125 8.066406 -0.0195312 6.390625 0 C 4.722656 0.03125 3.890625 -0.125 3.890625 -0.46875 L 3.6875 -13.21875 L 0.640625 -13.171875 C 0.347656 -13.160156 0.140625 -13.546875 0.015625 -14.328125 C -0.046875 -14.691406 -0.078125 -15.066406 -0.078125 -15.453125 C -0.0859375 -15.847656 -0.0664062 -16.234375 -0.015625 -16.609375 C 0.078125 -17.390625 0.269531 -17.785156 0.5625 -17.796875 L 11.609375 -17.96875 C 11.890625 -17.96875 12.101562 -17.578125 12.25 -16.796875 C 12.289062 -16.421875 12.3125 -16.035156 12.3125 -15.640625 C 12.320312 -15.253906 12.3125 -14.878906 12.28125 -14.515625 C 12.164062 -13.734375 11.96875 -13.34375 11.6875 -13.34375 L 8.703125 -13.296875 Z M 8.90625 -0.546875 "/></g></g></g><g fill="#545454" fill-opacity="1"><g transform="translate(194.657161, 359.374018)"><g><path d="M 14.921875 -2.21875 C 14.953125 -1.925781 14.117188 -1.675781 12.421875 -1.46875 C 10.734375 -1.269531 9.875 -1.316406 9.84375 -1.609375 L 9.15625 -7.390625 L 5.625 -6.96875 L 6.3125 -1.1875 C 6.34375 -0.894531 5.503906 -0.648438 3.796875 -0.453125 C 2.097656 -0.253906 1.234375 -0.300781 1.203125 -0.59375 L -0.78125 -17.296875 C -0.820312 -17.648438 0.00390625 -17.925781 1.703125 -18.125 C 3.410156 -18.320312 4.285156 -18.242188 4.328125 -17.890625 L 5.03125 -11.96875 L 8.5625 -12.390625 L 7.859375 -18.265625 C 7.828125 -18.503906 8.222656 -18.722656 9.046875 -18.921875 C 9.492188 -19.015625 9.921875 -19.082031 10.328125 -19.125 L 11.625 -19.21875 C 12.46875 -19.226562 12.90625 -19.113281 12.9375 -18.875 Z M 14.921875 -2.21875 "/></g></g></g><g fill="#545454" fill-opacity="1"><g transform="translate(212.171845, 357.129935)"><g><path d="M 6.9375 -12.53125 C 7.257812 -12.601562 7.550781 -12.0625 7.8125 -10.90625 C 7.894531 -10.5625 7.953125 -10.144531 7.984375 -9.65625 C 8.015625 -9.164062 7.925781 -8.894531 7.71875 -8.84375 L 4.578125 -8.140625 L 5.125 -5.671875 L 9.6875 -6.703125 C 9.957031 -6.753906 10.226562 -6.429688 10.5 -5.734375 C 10.625 -5.429688 10.722656 -5.101562 10.796875 -4.75 C 10.878906 -4.394531 10.9375 -3.925781 10.96875 -3.34375 C 11 -2.757812 10.894531 -2.441406 10.65625 -2.390625 L 2.1875 -0.484375 C 1.550781 -0.347656 1.175781 -0.535156 1.0625 -1.046875 L -2.5 -16.984375 C -2.59375 -17.421875 -2.445312 -17.679688 -2.0625 -17.765625 L 6.796875 -19.75 C 7.148438 -19.820312 7.488281 -19.125 7.8125 -17.65625 C 8.132812 -16.1875 8.117188 -15.414062 7.765625 -15.34375 L 3.1875 -14.3125 L 3.75 -11.8125 Z M 6.9375 -12.53125 "/></g></g></g><g fill="#545454" fill-opacity="1"><g transform="translate(225.653312, 354.127454)"><g><path d="M 4.28125 -19.25 C 4.300781 -19.882812 5.238281 -20.507812 7.09375 -21.125 C 7.550781 -21.269531 8.109375 -21.414062 8.765625 -21.5625 C 9.421875 -21.71875 9.738281 -21.734375 9.71875 -21.609375 L 8.03125 -9.890625 L 9.984375 -4 C 10.066406 -3.726562 9.691406 -3.390625 8.859375 -2.984375 C 8.429688 -2.773438 8 -2.597656 7.5625 -2.453125 C 7.125 -2.304688 6.679688 -2.1875 6.234375 -2.09375 C 5.316406 -1.90625 4.8125 -1.957031 4.71875 -2.25 L 2.8125 -7.984375 L -5.734375 -16.453125 C -5.828125 -16.523438 -5.523438 -16.722656 -4.828125 -17.046875 C -4.140625 -17.367188 -3.550781 -17.613281 -3.0625 -17.78125 C -1.082031 -18.4375 0.101562 -18.507812 0.5 -18 L 3.875 -13.65625 Z M 4.28125 -19.25 "/></g></g></g><g fill="#545454" fill-opacity="1"><g transform="translate(241.421391, 348.662161)"><g/></g></g><g fill="#545454" fill-opacity="1"><g transform="translate(246.932672, 346.578849)"><g><path d="M 11.796875 -5.921875 C 10.484375 -5.253906 9.664062 -5.101562 9.34375 -5.46875 L 7.125 -8.03125 L 3.515625 -6.203125 L 4.28125 -3.0625 C 4.425781 -2.539062 3.820312 -1.9375 2.46875 -1.25 C 1.738281 -0.882812 1.175781 -0.65625 0.78125 -0.5625 C 0.394531 -0.46875 0.191406 -0.445312 0.171875 -0.5 L -3.59375 -17.859375 C -3.644531 -17.972656 -2.632812 -18.550781 -0.5625 -19.59375 C 1.5 -20.644531 2.554688 -21.113281 2.609375 -21 L 14.328125 -7.625 C 14.367188 -7.519531 14.054688 -7.257812 13.390625 -6.84375 C 12.734375 -6.4375 12.203125 -6.128906 11.796875 -5.921875 Z M 2.640625 -9.359375 L 5.015625 -10.578125 L 1.609375 -14.734375 L 1.484375 -14.671875 Z M 2.640625 -9.359375 "/></g></g></g><g fill="#545454" fill-opacity="1"><g transform="translate(262.946792, 338.326948)"><g><path d="M 4.921875 -3.65625 C 5.078125 -3.425781 4.476562 -2.867188 3.125 -1.984375 C 1.769531 -1.085938 1.019531 -0.75 0.875 -0.96875 L -8.203125 -14.8125 C -8.523438 -15.3125 -8.425781 -15.734375 -7.90625 -16.078125 L -3.84375 -18.75 C -0.125 -21.1875 2.6875 -20.945312 4.59375 -18.03125 C 5.164062 -17.164062 5.515625 -16.265625 5.640625 -15.328125 C 5.773438 -14.390625 5.671875 -13.503906 5.328125 -12.671875 L 10.921875 -9.953125 C 11.023438 -9.546875 10.914062 -8.914062 10.59375 -8.0625 C 10.132812 -6.894531 9.628906 -6.128906 9.078125 -5.765625 C 8.535156 -5.410156 8 -5.34375 7.46875 -5.5625 L 2.421875 -8.90625 L 1.765625 -8.484375 Z M -2.15625 -14.46875 L -0.0625 -11.28125 L 0.046875 -11.34375 C 1.378906 -12.226562 1.675781 -13.234375 0.9375 -14.359375 C 0.601562 -14.859375 0.226562 -15.144531 -0.1875 -15.21875 C -0.613281 -15.300781 -1.125 -15.148438 -1.71875 -14.765625 Z M -2.15625 -14.46875 "/></g></g></g><g fill="#545454" fill-opacity="1"><g transform="translate(276.469774, 329.314236)"><g><path d="M 0.6875 -14.3125 C 0.945312 -14.507812 1.445312 -14.148438 2.1875 -13.234375 C 2.414062 -12.953125 2.648438 -12.597656 2.890625 -12.171875 C 3.140625 -11.753906 3.179688 -11.484375 3.015625 -11.359375 L 0.515625 -9.34375 L 2.109375 -7.359375 L 5.75 -10.28125 C 5.96875 -10.457031 6.347656 -10.285156 6.890625 -9.765625 C 7.128906 -9.554688 7.359375 -9.3125 7.578125 -9.03125 C 7.804688 -8.75 8.0625 -8.351562 8.34375 -7.84375 C 8.632812 -7.332031 8.691406 -7 8.515625 -6.84375 L 1.734375 -1.40625 C 1.234375 -1 0.820312 -1 0.5 -1.40625 L -9.734375 -14.125 C -10.015625 -14.476562 -10 -14.78125 -9.6875 -15.03125 L -2.625 -20.71875 C -2.332031 -20.945312 -1.71875 -20.472656 -0.78125 -19.296875 C 0.15625 -18.128906 0.476562 -17.429688 0.1875 -17.203125 L -3.453125 -14.265625 L -1.84375 -12.265625 Z M 0.6875 -14.3125 "/></g></g></g><g fill="#545454" fill-opacity="1"><g transform="translate(286.96587, 320.700274)"><g><path d="M 0.28125 -7.53125 C 0.34375 -7.457031 -0.0664062 -7.007812 -0.953125 -6.1875 C -1.835938 -5.363281 -2.304688 -4.984375 -2.359375 -5.046875 L -11.265625 -13.875 C -11.347656 -13.96875 -10.820312 -14.539062 -9.6875 -15.59375 C -8.550781 -16.65625 -7.941406 -17.144531 -7.859375 -17.0625 Z M -1.765625 -3.578125 C -1.847656 -3.660156 -1.3125 -4.234375 -0.15625 -5.296875 C 0.988281 -6.367188 1.597656 -6.863281 1.671875 -6.78125 L 4.171875 -4.109375 C 4.273438 -3.984375 3.75 -3.382812 2.59375 -2.3125 C 1.445312 -1.25 0.84375 -0.757812 0.78125 -0.84375 Z M -1.765625 -3.578125 "/></g></g></g><g clip-path="url(#48a78ce036)"><path fill="#005294" d="M 350.734375 147.675781 C 350.828125 120.457031 328.8125 97.953125 301.664062 97.507812 C 291.882812 97.347656 282.445312 100.007812 274.246094 105.195312 C 253.359375 80.5 222.179688 64.824219 187.347656 64.824219 C 152.511719 64.824219 121.332031 80.5 100.445312 105.195312 C 92.242188 100.007812 82.789062 97.351562 73.027344 97.507812 C 45.878906 97.953125 23.863281 120.457031 23.957031 147.675781 C 23.992188 159.03125 27.929688 170.117188 35.042969 178.933594 C 27.929688 187.746094 23.992188 198.835938 23.957031 210.1875 C 23.863281 237.410156 45.878906 259.914062 73.027344 260.355469 C 82.796875 260.515625 92.246094 257.855469 100.449219 252.667969 C 107.929688 261.511719 116.730469 269.203125 126.550781 275.429688 C 126.511719 275.78125 126.480469 276.136719 126.457031 276.496094 C 126.136719 280.867188 126.488281 285.246094 127.503906 289.515625 C 129.148438 296.402344 132.484375 301.351562 137.417969 304.222656 C 139.570312 305.472656 141.984375 306.292969 144.507812 306.660156 C 143.289062 311.707031 143.617188 317.113281 145.589844 321.996094 C 148.945312 330.292969 156.898438 336.414062 165.847656 337.597656 C 167.015625 337.753906 168.21875 337.832031 169.417969 337.832031 C 172.464844 337.832031 175.566406 337.347656 179.179688 336.316406 C 181.777344 335.574219 184.460938 335.199219 187.152344 335.199219 C 189.847656 335.199219 192.53125 335.574219 195.125 336.316406 C 198.742188 337.347656 201.84375 337.832031 204.890625 337.832031 C 206.089844 337.832031 207.289062 337.753906 208.457031 337.597656 C 217.410156 336.414062 225.359375 330.292969 228.714844 321.996094 C 230.511719 317.558594 230.945312 312.691406 230.09375 308.054688 C 232.027344 307.734375 233.882812 307.140625 235.632812 306.269531 C 240.742188 303.722656 244.386719 299 246.46875 292.226562 C 247.753906 288.039062 248.386719 283.691406 248.347656 279.304688 C 248.335938 277.960938 248.253906 276.679688 248.105469 275.453125 C 257.9375 269.222656 266.75 261.523438 274.242188 252.667969 C 282.210938 257.710938 291.359375 260.363281 300.835938 260.363281 C 301.113281 260.363281 301.390625 260.359375 301.664062 260.355469 C 328.8125 259.914062 350.828125 237.410156 350.734375 210.1875 C 350.699219 198.835938 346.761719 187.746094 339.648438 178.933594 C 346.761719 170.117188 350.699219 159.03125 350.734375 147.675781 Z M 214.804688 261.027344 C 214.691406 261.640625 214.542969 262.25 214.359375 262.851562 C 213.414062 265.914062 211.519531 268.699219 208.691406 270.054688 C 206.257812 271.222656 203.335938 271.214844 200.761719 270.277344 C 196.765625 268.820312 192.945312 264.976562 191.859375 260.761719 C 189.980469 253.453125 193.417969 240.246094 201.214844 237.585938 C 206.167969 235.898438 210.304688 240.164062 212.515625 244.261719 C 215.171875 249.1875 215.796875 255.628906 214.804688 261.027344 Z M 184.144531 260.664062 C 183.015625 264.871094 179.152344 268.671875 175.140625 270.085938 C 172.558594 271 169.636719 270.976562 167.214844 269.78125 C 164.402344 268.394531 162.539062 265.59375 161.625 262.519531 C 161.445312 261.917969 161.300781 261.308594 161.195312 260.691406 C 160.261719 255.285156 160.953125 248.847656 163.660156 243.953125 C 165.910156 239.878906 170.089844 235.652344 175.027344 237.394531 C 182.796875 240.132812 186.097656 253.375 184.144531 260.664062 Z M 142.660156 295.167969 C 139.847656 293.53125 138.421875 290.253906 137.667969 287.082031 C 136.902344 283.875 136.632812 280.546875 136.875 277.257812 C 137.082031 274.40625 137.710938 271.492188 139.382812 269.175781 C 140.902344 267.066406 143.46875 265.441406 146.136719 265.703125 C 147.730469 265.859375 149.203125 266.664062 150.414062 267.707031 C 155.476562 272.058594 160.070312 279.753906 159.5 286.605469 C 159.5 286.617188 159.5 286.625 159.5 286.632812 C 158.875 293.929688 148.988281 298.847656 142.660156 295.167969 Z M 219.035156 318.066406 C 217.070312 322.917969 212.265625 326.535156 207.09375 327.21875 C 203.957031 327.632812 200.957031 327.097656 197.992188 326.25 C 194.445312 325.234375 190.800781 324.730469 187.152344 324.730469 C 183.503906 324.730469 179.859375 325.234375 176.3125 326.25 C 173.351562 327.097656 170.347656 327.632812 167.214844 327.21875 C 162.042969 326.535156 157.234375 322.917969 155.273438 318.066406 C 153.460938 313.585938 154.074219 308.203125 156.84375 304.246094 C 161.191406 298.035156 168.949219 295.574219 172.574219 288.597656 C 175.890625 282.214844 178.367188 273.402344 187.152344 273.402344 C 195.941406 273.402344 198.417969 282.214844 201.734375 288.597656 C 205.359375 295.574219 213.117188 298.035156 217.464844 304.246094 C 220.234375 308.203125 220.847656 313.585938 219.035156 318.066406 Z M 236.480469 289.148438 C 235.523438 292.265625 233.894531 295.445312 230.980469 296.898438 C 224.429688 300.164062 214.878906 294.621094 214.722656 287.296875 C 214.722656 287.289062 214.722656 287.28125 214.722656 287.273438 C 214.59375 280.394531 219.671875 273.011719 225 268.996094 C 226.277344 268.035156 227.800781 267.324219 229.398438 267.269531 C 232.078125 267.179688 234.535156 268.964844 235.917969 271.167969 C 237.433594 273.589844 237.875 276.539062 237.902344 279.398438 C 237.929688 282.695312 237.449219 285.996094 236.480469 289.148438 Z M 329 187.320312 C 334.332031 193.855469 337.164062 201.777344 337.195312 210.234375 C 337.261719 230.066406 321.222656 246.464844 301.445312 246.789062 C 286.382812 247.03125 272.960938 238.1875 267.21875 224.253906 C 265.179688 219.300781 260.375 216.097656 254.976562 216.097656 L 119.714844 216.097656 C 114.320312 216.097656 109.515625 219.300781 107.472656 224.253906 C 101.808594 238 88.660156 246.792969 73.855469 246.792969 C 73.652344 246.792969 73.449219 246.789062 73.246094 246.789062 C 53.46875 246.464844 37.429688 230.066406 37.496094 210.234375 C 37.527344 201.777344 40.359375 193.855469 45.691406 187.320312 C 49.65625 182.460938 49.65625 175.40625 45.691406 170.546875 C 40.359375 164.011719 37.527344 156.085938 37.496094 147.632812 C 37.429688 127.796875 53.46875 111.398438 73.246094 111.078125 C 88.296875 110.84375 101.730469 119.679688 107.472656 133.613281 C 109.515625 138.566406 114.320312 141.765625 119.714844 141.765625 L 254.976562 141.765625 C 260.375 141.765625 265.179688 138.566406 267.21875 133.613281 C 272.882812 119.867188 286.03125 111.074219 300.835938 111.074219 C 301.039062 111.074219 301.242188 111.074219 301.445312 111.078125 C 321.222656 111.398438 337.261719 127.796875 337.195312 147.632812 C 337.164062 156.085938 334.332031 164.011719 329 170.546875 C 325.035156 175.40625 325.035156 182.460938 329 187.320312 Z M 329 187.320312 " fill-opacity="1" fill-rule="nonzero"/></g></svg>