<svg xmlns="http://www.w3.org/2000/svg" xmlns:xlink="http://www.w3.org/1999/xlink" width="500" zoomAndPan="magnify" viewBox="0 0 375 374.999991" height="500" preserveAspectRatio="xMidYMid meet" version="1.0"><defs><g/><clipPath id="7391ea1c59"><path d="M 47.058594 37.5 L 328.308594 37.5 L 328.308594 105.75 L 47.058594 105.75 Z M 47.058594 37.5 " clip-rule="nonzero"/></clipPath><clipPath id="61ef1c86d4"><path d="M 224.382812 251.292969 L 327.882812 251.292969 L 327.882812 318.042969 L 224.382812 318.042969 Z M 224.382812 251.292969 " clip-rule="nonzero"/></clipPath><clipPath id="ea1bdbd3b8"><path d="M 47.058594 250.90625 L 150.558594 250.90625 L 150.558594 318.40625 L 47.058594 318.40625 Z M 47.058594 250.90625 " clip-rule="nonzero"/></clipPath><clipPath id="b17a64fff0"><path d="M 23.847656 64.808594 L 350.847656 64.808594 L 350.847656 337.808594 L 23.847656 337.808594 Z M 23.847656 64.808594 " clip-rule="nonzero"/></clipPath></defs><rect x="-37.5" width="450" fill="#ffffff" y="-37.499999" height="449.999989" fill-opacity="1"/><rect x="-37.5" width="450" fill="#eff1db" y="-37.499999" height="449.999989" fill-opacity="1"/><g clip-path="url(#7391ea1c59)"><path fill="#944209" d="M 187.683594 318.75 C 109.992188 318.75 47.058594 255.382812 47.058594 178.125 C 47.058594 100.867188 109.992188 37.5 187.683594 37.5 C 265.375 37.5 328.308594 100.433594 328.308594 178.125 C 328.308594 255.816406 264.9375 318.75 187.683594 318.75 Z M 187.683594 46.179688 C 114.765625 46.179688 55.738281 105.207031 55.738281 178.125 C 55.738281 251.042969 114.765625 310.070312 187.683594 310.070312 C 260.597656 310.070312 319.625 251.042969 319.625 178.125 C 319.625 105.207031 260.164062 46.179688 187.683594 46.179688 Z M 187.683594 46.179688 " fill-opacity="1" fill-rule="nonzero"/></g><g clip-path="url(#61ef1c86d4)"><path fill="#944209" d="M 187.683594 318.75 C 109.992188 318.75 47.058594 255.382812 47.058594 178.125 C 47.058594 100.867188 109.992188 37.5 187.683594 37.5 C 265.375 37.5 328.308594 100.433594 328.308594 178.125 C 328.308594 255.816406 264.9375 318.75 187.683594 318.75 Z M 187.683594 46.179688 C 114.765625 46.179688 55.738281 105.207031 55.738281 178.125 C 55.738281 251.042969 114.765625 310.070312 187.683594 310.070312 C 260.597656 310.070312 319.625 251.042969 319.625 178.125 C 319.625 105.207031 260.164062 46.179688 187.683594 46.179688 Z M 187.683594 46.179688 " fill-opacity="1" fill-rule="nonzero"/></g><g clip-path="url(#ea1bdbd3b8)"><path fill="#944209" d="M 187.683594 318.75 C 109.992188 318.75 47.058594 255.382812 47.058594 178.125 C 47.058594 100.867188 109.992188 37.5 187.683594 37.5 C 265.375 37.5 328.308594 100.433594 328.308594 178.125 C 328.308594 255.816406 264.9375 318.75 187.683594 318.75 Z M 187.683594 46.179688 C 114.765625 46.179688 55.738281 105.207031 55.738281 178.125 C 55.738281 251.042969 114.765625 310.070312 187.683594 310.070312 C 260.597656 310.070312 319.625 251.042969 319.625 178.125 C 319.625 105.207031 260.164062 46.179688 187.683594 46.179688 Z M 187.683594 46.179688 " fill-opacity="1" fill-rule="nonzero"/></g><g fill="#089400" fill-opacity="1"><g transform="translate(65.714945, 199.889459)"><g><path d="M 7.671875 0.109375 C 4.273438 0.109375 2.578125 -0.265625 2.578125 -1.015625 L 2.578125 -37.296875 C 2.578125 -38.566406 3.15625 -39.203125 4.3125 -39.203125 L 14.171875 -39.203125 C 19.691406 -39.203125 23.675781 -38.0625 26.125 -35.78125 C 28.570312 -33.507812 29.796875 -30.207031 29.796875 -25.875 C 29.796875 -22.289062 28.632812 -19.003906 26.3125 -16.015625 C 25.15625 -14.523438 23.457031 -13.332031 21.21875 -12.4375 C 18.976562 -11.539062 16.367188 -11.09375 13.390625 -11.09375 L 13.390625 -1.0625 C 13.390625 -0.613281 12.6875 -0.304688 11.28125 -0.140625 C 9.882812 0.0234375 8.679688 0.109375 7.671875 0.109375 Z M 13.390625 -29.453125 L 13.390625 -20.609375 L 14.109375 -20.609375 C 15.421875 -20.609375 16.523438 -21.019531 17.421875 -21.84375 C 18.316406 -22.664062 18.765625 -23.820312 18.765625 -25.3125 C 18.765625 -26.800781 18.453125 -27.863281 17.828125 -28.5 C 17.210938 -29.132812 16.125 -29.453125 14.5625 -29.453125 Z M 13.390625 -29.453125 "/></g></g></g><g fill="#089400" fill-opacity="1"><g transform="translate(99.31049, 199.889459)"><g><path d="M 21 -23.625 C 21.707031 -23.625 22.0625 -22.320312 22.0625 -19.71875 C 22.0625 -18.925781 21.976562 -18 21.8125 -16.9375 C 21.644531 -15.875 21.335938 -15.34375 20.890625 -15.34375 L 13.78125 -15.34375 L 13.78125 -9.75 L 24.078125 -9.75 C 24.710938 -9.75 25.144531 -8.925781 25.375 -7.28125 C 25.476562 -6.570312 25.53125 -5.816406 25.53125 -5.015625 C 25.53125 -4.210938 25.414062 -3.175781 25.1875 -1.90625 C 24.96875 -0.632812 24.597656 0 24.078125 0 L 4.921875 0 C 3.503906 0 2.796875 -0.578125 2.796875 -1.734375 L 2.796875 -37.75 C 2.796875 -38.71875 3.226562 -39.203125 4.09375 -39.203125 L 24.140625 -39.203125 C 24.921875 -39.203125 25.3125 -37.546875 25.3125 -34.234375 C 25.3125 -30.929688 24.921875 -29.28125 24.140625 -29.28125 L 13.78125 -29.28125 L 13.78125 -23.625 Z M 21 -23.625 "/></g></g></g><g fill="#089400" fill-opacity="1"><g transform="translate(128.594635, 199.889459)"><g><path d="M 19.65625 -0.890625 C 19.65625 -0.148438 17.804688 0.21875 14.109375 0.21875 C 10.410156 0.21875 8.5625 -0.148438 8.5625 -0.890625 L 8.5625 -29.015625 L 1.84375 -29.015625 C 1.207031 -29.015625 0.757812 -29.867188 0.5 -31.578125 C 0.394531 -32.398438 0.34375 -33.238281 0.34375 -34.09375 C 0.34375 -34.957031 0.394531 -35.800781 0.5 -36.625 C 0.757812 -38.34375 1.207031 -39.203125 1.84375 -39.203125 L 26.203125 -39.203125 C 26.835938 -39.203125 27.285156 -38.34375 27.546875 -36.625 C 27.660156 -35.800781 27.71875 -34.957031 27.71875 -34.09375 C 27.71875 -33.238281 27.660156 -32.398438 27.546875 -31.578125 C 27.285156 -29.867188 26.835938 -29.015625 26.203125 -29.015625 L 19.65625 -29.015625 Z M 19.65625 -0.890625 "/></g></g></g><g fill="#089400" fill-opacity="1"><g transform="translate(158.382705, 199.889459)"><g/></g></g><g fill="#089400" fill-opacity="1"><g transform="translate(170.589236, 199.889459)"><g><path d="M 7.671875 0.109375 C 4.273438 0.109375 2.578125 -0.265625 2.578125 -1.015625 L 2.578125 -37.296875 C 2.578125 -38.566406 3.15625 -39.203125 4.3125 -39.203125 L 14.171875 -39.203125 C 19.691406 -39.203125 23.675781 -38.0625 26.125 -35.78125 C 28.570312 -33.507812 29.796875 -30.207031 29.796875 -25.875 C 29.796875 -22.289062 28.632812 -19.003906 26.3125 -16.015625 C 25.15625 -14.523438 23.457031 -13.332031 21.21875 -12.4375 C 18.976562 -11.539062 16.367188 -11.09375 13.390625 -11.09375 L 13.390625 -1.0625 C 13.390625 -0.613281 12.6875 -0.304688 11.28125 -0.140625 C 9.882812 0.0234375 8.679688 0.109375 7.671875 0.109375 Z M 13.390625 -29.453125 L 13.390625 -20.609375 L 14.109375 -20.609375 C 15.421875 -20.609375 16.523438 -21.019531 17.421875 -21.84375 C 18.316406 -22.664062 18.765625 -23.820312 18.765625 -25.3125 C 18.765625 -26.800781 18.453125 -27.863281 17.828125 -28.5 C 17.210938 -29.132812 16.125 -29.453125 14.5625 -29.453125 Z M 13.390625 -29.453125 "/></g></g></g><g fill="#089400" fill-opacity="1"><g transform="translate(204.184784, 199.889459)"><g><path d="M 13.5 -0.78125 C 13.5 -0.1875 11.722656 0.109375 8.171875 0.109375 C 4.585938 0.109375 2.796875 -0.171875 2.796875 -0.734375 L 2.796875 -37.234375 C 2.796875 -38.546875 3.488281 -39.203125 4.875 -39.203125 L 15.5625 -39.203125 C 25.382812 -39.203125 30.296875 -35.375 30.296875 -27.71875 C 30.296875 -25.40625 29.847656 -23.304688 28.953125 -21.421875 C 28.054688 -19.535156 26.785156 -18.03125 25.140625 -16.90625 L 32.203125 -5.15625 C 31.898438 -4.257812 30.925781 -3.234375 29.28125 -2.078125 C 27.039062 -0.460938 25.191406 0.34375 23.734375 0.34375 C 22.285156 0.34375 21.207031 -0.179688 20.5 -1.234375 L 15.234375 -13.5 L 13.5 -13.5 Z M 13.5 -29.28125 L 13.5 -20.890625 L 13.78125 -20.890625 C 17.320312 -20.890625 19.09375 -22.363281 19.09375 -25.3125 C 19.09375 -26.65625 18.75 -27.648438 18.0625 -28.296875 C 17.375 -28.953125 16.242188 -29.28125 14.671875 -29.28125 Z M 13.5 -29.28125 "/></g></g></g><g fill="#089400" fill-opacity="1"><g transform="translate(238.900171, 199.889459)"><g><path d="M 19.453125 0.5625 C 14.210938 0.5625 9.941406 -1.15625 6.640625 -4.59375 C 3.335938 -8.03125 1.6875 -13.039062 1.6875 -19.625 C 1.6875 -26.21875 3.351562 -31.210938 6.6875 -34.609375 C 10.03125 -38.003906 14.34375 -39.703125 19.625 -39.703125 C 24.90625 -39.703125 29.171875 -38.03125 32.421875 -34.6875 C 35.671875 -31.351562 37.296875 -26.296875 37.296875 -19.515625 C 37.296875 -12.742188 35.632812 -7.703125 32.3125 -4.390625 C 28.988281 -1.085938 24.703125 0.5625 19.453125 0.5625 Z M 19.484375 -28.953125 C 17.691406 -28.953125 16.1875 -28.128906 14.96875 -26.484375 C 13.757812 -24.847656 13.15625 -22.546875 13.15625 -19.578125 C 13.15625 -16.609375 13.734375 -14.328125 14.890625 -12.734375 C 16.046875 -11.148438 17.566406 -10.359375 19.453125 -10.359375 C 21.335938 -10.359375 22.867188 -11.160156 24.046875 -12.765625 C 25.222656 -14.367188 25.8125 -16.664062 25.8125 -19.65625 C 25.8125 -22.644531 25.203125 -24.941406 23.984375 -26.546875 C 22.773438 -28.148438 21.273438 -28.953125 19.484375 -28.953125 Z M 19.484375 -28.953125 "/></g></g></g><g fill="#089400" fill-opacity="1"><g transform="translate(279.550738, 199.889459)"><g><path d="M 4.25 -13.65625 C 4.957031 -13.101562 6.179688 -12.335938 7.921875 -11.359375 C 9.660156 -10.390625 11.320312 -9.90625 12.90625 -9.90625 C 14.488281 -9.90625 15.28125 -10.523438 15.28125 -11.765625 C 15.28125 -12.316406 15.054688 -12.804688 14.609375 -13.234375 C 14.160156 -13.671875 13.335938 -14.164062 12.140625 -14.71875 C 10.953125 -15.28125 10.054688 -15.71875 9.453125 -16.03125 C 8.859375 -16.351562 8.066406 -16.878906 7.078125 -17.609375 C 6.085938 -18.335938 5.332031 -19.09375 4.8125 -19.875 C 3.320312 -22.007812 2.578125 -24.71875 2.578125 -28 C 2.578125 -31.28125 3.796875 -34.050781 6.234375 -36.3125 C 8.679688 -38.570312 11.882812 -39.703125 15.84375 -39.703125 C 18.53125 -39.703125 21.015625 -39.410156 23.296875 -38.828125 C 25.578125 -38.253906 26.753906 -37.5 26.828125 -36.5625 C 26.828125 -36.457031 26.828125 -36.347656 26.828125 -36.234375 C 26.828125 -34.921875 26.414062 -33.265625 25.59375 -31.265625 C 24.769531 -29.273438 24.191406 -28.164062 23.859375 -27.9375 C 21.460938 -29.175781 19.320312 -29.796875 17.4375 -29.796875 C 15.550781 -29.796875 14.609375 -29.125 14.609375 -27.78125 C 14.609375 -26.957031 15.300781 -26.226562 16.6875 -25.59375 C 16.988281 -25.445312 17.414062 -25.238281 17.96875 -24.96875 C 18.53125 -24.707031 19.175781 -24.398438 19.90625 -24.046875 C 20.632812 -23.691406 21.414062 -23.242188 22.25 -22.703125 C 23.09375 -22.160156 24 -21.441406 24.96875 -20.546875 C 26.945312 -18.679688 27.9375 -16.21875 27.9375 -13.15625 C 27.9375 -9.164062 26.835938 -5.898438 24.640625 -3.359375 C 22.441406 -0.816406 19.046875 0.488281 14.453125 0.5625 C 12.210938 0.5625 10.1875 0.375 8.375 0 C 6.5625 -0.375 4.984375 -1.101562 3.640625 -2.1875 C 2.296875 -3.269531 1.625 -4.578125 1.625 -6.109375 C 1.625 -7.640625 1.898438 -9.160156 2.453125 -10.671875 C 3.015625 -12.179688 3.613281 -13.175781 4.25 -13.65625 Z M 4.25 -13.65625 "/></g></g></g><g clip-path="url(#b17a64fff0)"><path fill="#005294" d="M 350.734375 147.675781 C 350.828125 120.457031 328.8125 97.953125 301.664062 97.507812 C 291.882812 97.347656 282.445312 100.007812 274.246094 105.195312 C 253.359375 80.5 222.179688 64.824219 187.347656 64.824219 C 152.511719 64.824219 121.332031 80.5 100.445312 105.195312 C 92.242188 100.007812 82.789062 97.351562 73.027344 97.507812 C 45.878906 97.953125 23.863281 120.457031 23.957031 147.675781 C 23.992188 159.03125 27.929688 170.117188 35.042969 178.933594 C 27.929688 187.746094 23.992188 198.835938 23.957031 210.1875 C 23.863281 237.410156 45.878906 259.914062 73.027344 260.355469 C 82.796875 260.515625 92.246094 257.855469 100.449219 252.667969 C 107.929688 261.511719 116.730469 269.203125 126.550781 275.429688 C 126.511719 275.78125 126.480469 276.136719 126.457031 276.496094 C 126.136719 280.867188 126.488281 285.246094 127.503906 289.515625 C 129.148438 296.402344 132.484375 301.351562 137.417969 304.222656 C 139.570312 305.472656 141.984375 306.292969 144.507812 306.660156 C 143.289062 311.707031 143.617188 317.113281 145.589844 321.996094 C 148.945312 330.292969 156.898438 336.414062 165.847656 337.597656 C 167.015625 337.753906 168.21875 337.832031 169.417969 337.832031 C 172.464844 337.832031 175.566406 337.347656 179.179688 336.316406 C 181.777344 335.574219 184.460938 335.199219 187.152344 335.199219 C 189.847656 335.199219 192.53125 335.574219 195.125 336.316406 C 198.742188 337.347656 201.84375 337.832031 204.890625 337.832031 C 206.089844 337.832031 207.289062 337.753906 208.457031 337.597656 C 217.410156 336.414062 225.359375 330.292969 228.714844 321.996094 C 230.511719 317.558594 230.945312 312.691406 230.09375 308.054688 C 232.027344 307.734375 233.882812 307.140625 235.632812 306.269531 C 240.742188 303.722656 244.386719 299 246.46875 292.226562 C 247.753906 288.039062 248.386719 283.691406 248.347656 279.304688 C 248.335938 277.960938 248.253906 276.679688 248.105469 275.453125 C 257.9375 269.222656 266.75 261.523438 274.242188 252.667969 C 282.210938 257.710938 291.359375 260.363281 300.835938 260.363281 C 301.113281 260.363281 301.390625 260.359375 301.664062 260.355469 C 328.8125 259.914062 350.828125 237.410156 350.734375 210.1875 C 350.699219 198.835938 346.761719 187.746094 339.648438 178.933594 C 346.761719 170.117188 350.699219 159.03125 350.734375 147.675781 Z M 214.804688 261.027344 C 214.691406 261.640625 214.542969 262.25 214.359375 262.851562 C 213.414062 265.914062 211.519531 268.699219 208.691406 270.054688 C 206.257812 271.222656 203.335938 271.214844 200.761719 270.277344 C 196.765625 268.820312 192.945312 264.976562 191.859375 260.761719 C 189.980469 253.453125 193.417969 240.246094 201.214844 237.585938 C 206.167969 235.898438 210.304688 240.164062 212.515625 244.261719 C 215.171875 249.1875 215.796875 255.628906 214.804688 261.027344 Z M 184.144531 260.664062 C 183.015625 264.871094 179.152344 268.671875 175.140625 270.085938 C 172.558594 271 169.636719 270.976562 167.214844 269.78125 C 164.402344 268.394531 162.539062 265.59375 161.625 262.519531 C 161.445312 261.917969 161.300781 261.308594 161.195312 260.691406 C 160.261719 255.285156 160.953125 248.847656 163.660156 243.953125 C 165.910156 239.878906 170.089844 235.652344 175.027344 237.394531 C 182.796875 240.132812 186.097656 253.375 184.144531 260.664062 Z M 142.660156 295.167969 C 139.847656 293.53125 138.421875 290.253906 137.667969 287.082031 C 136.902344 283.875 136.632812 280.546875 136.875 277.257812 C 137.082031 274.40625 137.710938 271.492188 139.382812 269.175781 C 140.902344 267.066406 143.46875 265.441406 146.136719 265.703125 C 147.730469 265.859375 149.203125 266.664062 150.414062 267.707031 C 155.476562 272.058594 160.070312 279.753906 159.5 286.605469 C 159.5 286.617188 159.5 286.625 159.5 286.632812 C 158.875 293.929688 148.988281 298.847656 142.660156 295.167969 Z M 219.035156 318.066406 C 217.070312 322.917969 212.265625 326.535156 207.09375 327.21875 C 203.957031 327.632812 200.957031 327.097656 197.992188 326.25 C 194.445312 325.234375 190.800781 324.730469 187.152344 324.730469 C 183.503906 324.730469 179.859375 325.234375 176.3125 326.25 C 173.351562 327.097656 170.347656 327.632812 167.214844 327.21875 C 162.042969 326.535156 157.234375 322.917969 155.273438 318.066406 C 153.460938 313.585938 154.074219 308.203125 156.84375 304.246094 C 161.191406 298.035156 168.949219 295.574219 172.574219 288.597656 C 175.890625 282.214844 178.367188 273.402344 187.152344 273.402344 C 195.941406 273.402344 198.417969 282.214844 201.734375 288.597656 C 205.359375 295.574219 213.117188 298.035156 217.464844 304.246094 C 220.234375 308.203125 220.847656 313.585938 219.035156 318.066406 Z M 236.480469 289.148438 C 235.523438 292.265625 233.894531 295.445312 230.980469 296.898438 C 224.429688 300.164062 214.878906 294.621094 214.722656 287.296875 C 214.722656 287.289062 214.722656 287.28125 214.722656 287.273438 C 214.59375 280.394531 219.671875 273.011719 225 268.996094 C 226.277344 268.035156 227.800781 267.324219 229.398438 267.269531 C 232.078125 267.179688 234.535156 268.964844 235.917969 271.167969 C 237.433594 273.589844 237.875 276.539062 237.902344 279.398438 C 237.929688 282.695312 237.449219 285.996094 236.480469 289.148438 Z M 329 187.320312 C 334.332031 193.855469 337.164062 201.777344 337.195312 210.234375 C 337.261719 230.066406 321.222656 246.464844 301.445312 246.789062 C 286.382812 247.03125 272.960938 238.1875 267.21875 224.253906 C 265.179688 219.300781 260.375 216.097656 254.976562 216.097656 L 119.714844 216.097656 C 114.320312 216.097656 109.515625 219.300781 107.472656 224.253906 C 101.808594 238 88.660156 246.792969 73.855469 246.792969 C 73.652344 246.792969 73.449219 246.789062 73.246094 246.789062 C 53.46875 246.464844 37.429688 230.066406 37.496094 210.234375 C 37.527344 201.777344 40.359375 193.855469 45.691406 187.320312 C 49.65625 182.460938 49.65625 175.40625 45.691406 170.546875 C 40.359375 164.011719 37.527344 156.085938 37.496094 147.632812 C 37.429688 127.796875 53.46875 111.398438 73.246094 111.078125 C 88.296875 110.84375 101.730469 119.679688 107.472656 133.613281 C 109.515625 138.566406 114.320312 141.765625 119.714844 141.765625 L 254.976562 141.765625 C 260.375 141.765625 265.179688 138.566406 267.21875 133.613281 C 272.882812 119.867188 286.03125 111.074219 300.835938 111.074219 C 301.039062 111.074219 301.242188 111.074219 301.445312 111.078125 C 321.222656 111.398438 337.261719 127.796875 337.195312 147.632812 C 337.164062 156.085938 334.332031 164.011719 329 170.546875 C 325.035156 175.40625 325.035156 182.460938 329 187.320312 Z M 329 187.320312 " fill-opacity="1" fill-rule="nonzero"/></g></svg>